<?xml version="1.0" encoding="UTF-8"?>
<svg data-name="Layer 1" viewBox="0 0 1920 1080" xmlns="http://www.w3.org/2000/svg">
 <defs>
  <style>.cls-1{fill:#040404;}.cls-2{fill:#fff;}.cls-3{fill:#4d4d4d;}.cls-4{fill:#86328c;}.cls-5{fill:#f7f7f7;}.cls-6{fill:#ec008c;}.cls-7{fill:#0083ca;}.cls-8{fill:#999;}.cls-9{fill:#ed1164;}.cls-10{fill:#afafaf;}.cls-11{fill:#919296;}.cls-12{fill:url(#e);}.cls-13{fill:#464142;}.cls-14{fill:url(#d);}.cls-15{fill:#1d1e21;}.cls-16{fill:#0d0f12;}.cls-17{fill:#1c1e20;}.cls-18{fill:#dcdde0;}.cls-19{fill:#cecece;}.cls-20{stroke:#0c0c0c;fill:url(#c);}.cls-20,.cls-22,.cls-26{stroke-miterlimit:10;}.cls-21{opacity:0.63;}.cls-22{fill:none;stroke:#424242;}.cls-22,.cls-28{opacity:0.55;}.cls-23{fill:#191918;}.cls-24{fill:#423f43;}.cls-25{fill:#666;}.cls-26{fill:url(#b);stroke:url(#a);}.cls-27{opacity:0.93;}</style>
  <linearGradient id="e" x1="635.28" x2="1420.2" y1="750.67" y2="750.67" gradientUnits="userSpaceOnUse">
   <stop stop-color="#606162" offset="0"/>
   <stop stop-color="#b7babb" offset=".12"/>
   <stop stop-color="#a2a5a6" offset=".36"/>
   <stop stop-color="#c9cccd" offset=".51"/>
   <stop stop-color="#848687" offset=".73"/>
   <stop stop-color="#9c9fa0" offset=".88"/>
   <stop stop-color="#4c4d4e" offset="1"/>
  </linearGradient>
  <linearGradient id="d" x1="1023.8" x2="1023.8" y1="738.51" y2="749.87" gradientUnits="userSpaceOnUse">
   <stop stop-color="#9c9fa0" offset="0"/>
   <stop stop-color="#a2a5a6" offset=".24"/>
   <stop stop-color="#4c4d4e" offset="1"/>
  </linearGradient>
  <linearGradient id="c" x1="1564.1" x2="1572.8" y1="765.1" y2="750.06" gradientUnits="userSpaceOnUse">
   <stop stop-color="#0a0a0a" offset="0"/>
   <stop stop-color="#1b1b1b" offset=".57"/>
   <stop stop-color="#090909" offset="1"/>
  </linearGradient>
  <radialGradient id="b" cx="390.29" cy="758.76" r="10.65" gradientTransform="translate(465.38 163.82) rotate(47.8) scale(1 .6)" gradientUnits="userSpaceOnUse">
   <stop stop-color="#2a2a2a" offset="0"/>
   <stop stop-color="#090909" offset="1"/>
  </radialGradient>
  <radialGradient id="a" cx="390.29" cy="758.76" r="11.15" gradientTransform="translate(690.21 -40.05) rotate(47.8)" gradientUnits="userSpaceOnUse">
   <stop stop-color="#464646" offset=".13"/>
   <stop stop-color="#2b2b2b" offset=".37"/>
   <stop stop-color="#090909" offset="1"/>
  </radialGradient>
 </defs>
 <path class="cls-1" d="m748.75 320.73h562.25a35.18 35.18 0 0 1 35.18 35.18v380.83h-632.61v-380.83a35.18 35.18 0 0 1 35.18 -35.18z"/>
 <rect class="cls-2" x="745.68" y="359.02" width="570.87" height="342.5" rx="2.21" ry="2.21"/>
 <ellipse class="cls-3" cx="1030.8" cy="341.95" rx="3.62" ry="2.15"/>
 <image transform="translate(991.71 304.23)" width="77" height="75"/>
 <rect class="cls-4" x="744.87" y="375.76" width="570.87" height="23.16"/>
 <rect class="cls-4" x="794.56" y="409.43" width="464.57" height="120.11"/>
 <rect class="cls-5" x="879.45" y="460.96" width="294.79" height="24.48"/>
 <rect class="cls-6" x="1111.4" y="460.96" width="62.79" height="24.77"/>
 <rect class="cls-7" x="954.76" y="542.92" width="143.29" height="63.19"/>
 <rect class="cls-7" x="1115.8" y="541.46" width="143.29" height="63.19"/>
 <rect class="cls-7" x="794.56" y="542.92" width="143.29" height="63.19"/>
 <rect class="cls-8" x="955.2" y="616.31" width="143.29" height="4.21"/>
 <rect class="cls-8" x="955.2" y="628.39" width="143.29" height="4.21"/>
 <rect class="cls-8" x="955.2" y="640.47" width="143.29" height="4.21"/>
 <rect class="cls-8" x="955.2" y="652.56" width="143.29" height="4.21"/>
 <rect class="cls-9" x="794.56" y="666.65" width="464.57" height="34.71"/>
 <rect class="cls-8" x="794.56" y="615.84" width="143.29" height="4.21"/>
 <rect class="cls-8" x="794.56" y="627.92" width="143.29" height="4.21"/>
 <rect class="cls-8" x="794.56" y="640" width="143.29" height="4.21"/>
 <rect class="cls-8" x="794.56" y="652.08" width="143.29" height="4.21"/>
 <rect class="cls-8" x="1115.8" y="616.31" width="143.29" height="4.21"/>
 <rect class="cls-8" x="1115.8" y="628.39" width="143.29" height="4.21"/>
 <rect class="cls-8" x="1115.8" y="640.47" width="143.29" height="4.21"/>
 <rect class="cls-8" x="1115.8" y="652.56" width="143.29" height="4.21"/>
 <rect class="cls-8" x="1117.9" y="385.14" width="69.35" height="5.75"/>
 <rect class="cls-10" x="1030.8" y="385.14" width="69.35" height="5.75"/>
 <rect class="cls-8" x="860.47" y="385.14" width="69.35" height="5.75"/>
 <rect class="cls-8" x="943.78" y="385.14" width="69.35" height="5.75"/>
 <path class="cls-11" d="m1414.8 757.18c0 6.37-25.13 15.61-29.82 15.61h-711.36c-4.69 0-29.82-9.25-29.82-15.61z"/>
 <path class="cls-12" d="m635.28 736.61h784.87v5.24a22.88 22.88 0 0 1 -22.88 22.88h-739.67a22.32 22.32 0 0 1 -22.32 -22.32v-5.8z"/>
 <path class="cls-13" d="M1396,769c0,2.75-23.93,6.74-28.39,6.74H690.28c-4.46,0-28.39-4-28.39-6.74Z"/>
 <path class="cls-14" d="m1078.4 738.51a11.57 11.57 0 0 1 -11.25 11.36h-87.7c-6.34 0-10.24-5.68-10.24-11.35z"/>
 <path class="cls-15" d="m915.45 773.69c2.13-1.65 8.12-1.61 9.65 0.06a17.18 17.18 0 0 1 -9.65 -0.06z"/>
 <path class="cls-15" d="m1128.2 774.13c2.13-1.65 8.12-1.61 9.65 0.06a17.18 17.18 0 0 1 -9.65 -0.06z"/>
 <path class="cls-15" d="M690,773.37c2.13-1.65,8.12-1.61,9.65.06A17.18,17.18,0,0,1,690,773.37Z"/>
 <path class="cls-15" d="m1350.3 773.92c2.13-1.65 8.12-1.61 9.65 0.06a17.18 17.18 0 0 1 -9.65 -0.06z"/>
 <path class="cls-16" d="m1343 752.5a5.94 5.94 0 0 1 -1.58 0.47h-23a2.07 2.07 0 0 1 -1.57 -0.51c8.71-0.21 17.44-0.27 26.15 0.04z"/>
 <path class="cls-17" d="M1316.4,754.19c-1-1.23-1.89-2.44.42-3.24,5.82.52,11.65.15,17.47.21A53.36,53.36,0,0,0,1343,751c2.3,1.13,1.26,2.22,0,3.3-1.55.66-3.18.29-4.76.3-6.36.05-12.73,0-19.1,0C1318.21,754.58,1317.21,755,1316.4,754.19Z"/>
 <path class="cls-18" d="M1316.4,754.19l26.58.08a3.73,3.73,0,0,1-.05.47q-13.18.07-26.36.09c-.07,0-.2-.09-.2-.14A3.22,3.22,0,0,1,1316.4,754.19Z"/>
 <path class="cls-16" d="m1343 751a5.94 5.94 0 0 1 -1.58 0.47h-23a2.07 2.07 0 0 1 -1.57 -0.51c8.71-0.23 17.44-0.29 26.15 0.04z"/>
 <path class="cls-16" d="m1343 751a5.94 5.94 0 0 1 -1.58 0.47h-23a2.07 2.07 0 0 1 -1.57 -0.51c8.71-0.23 17.44-0.29 26.15 0.04z"/>
 <path class="cls-17" d="M1316.4,754.19c-1-1.23-1.89-2.44.42-3.24,5.82.52,11.65.15,17.47.21A53.36,53.36,0,0,0,1343,751c2.3,1.13,1.26,2.22,0,3.3-1.55.66-3.18.29-4.76.3-6.36.05-12.73,0-19.1,0C1318.21,754.58,1317.21,755,1316.4,754.19Z"/>
 <path class="cls-19" d="M1316.4,754.19l26.58.08a3.73,3.73,0,0,1-.05.47q-13.18.07-26.36.09c-.07,0-.2-.09-.2-.14A3.22,3.22,0,0,1,1316.4,754.19Z"/>
 <path class="cls-16" d="m1343 751a5.94 5.94 0 0 1 -1.58 0.47h-23a2.07 2.07 0 0 1 -1.57 -0.51c8.71-0.23 17.44-0.29 26.15 0.04z"/>
 <rect class="cls-1" x="1497.9" y="513.8" width="139.01" height="261.76" rx="20.53" ry="20.53"/>
 <ellipse class="cls-20" cx="1568.4" cy="757.58" rx="8.11" ry="8.86"/>
 <g class="cls-21">
  <image transform="translate(1525.8 714.68)" width="85" height="86"/>
 </g>
 <path class="cls-22" d="m1566.8 755.41h2.75a1 1 0 0 1 1 1v2.31a1.68 1.68 0 0 1 -1.68 1.68h-2.09a1 1 0 0 1 -1 -1v-3a1 1 0 0 1 1.02 -0.99z"/>
 <ellipse class="cls-3" cx="1552.8" cy="533.13" rx=".86" ry="1.3"/>
 <image transform="translate(1515.8 495.68)" width="74" height="74"/>
 <rect class="cls-23" x="1559.8" y="532.23" width="18.25" height="2.36" rx="1.18" ry="1.18"/>
 <rect class="cls-24" x="1561.4" y="532.52" width="15.43" height="1.77" rx=".89" ry=".89"/>
 <image transform="translate(1530.8 496.68)" width="82" height="73"/>
 <rect class="cls-2" x="1511.1" y="548.3" width="113.99" height="186.7" rx="2.21" ry="2.21"/>
 <rect class="cls-4" x="1511.1" y="561.9" width="113.99" height="11.68"/>
 <rect class="cls-4" x="1511.2" y="580.24" width="113.99" height="55.88"/>
 <rect class="cls-5" x="1523.1" y="601.15" width="82.52" height="12.06"/>
 <rect class="cls-7" x="1553.6" y="641.06" width="28.61" height="22.32"/>
 <rect class="cls-7" x="1589.9" y="641.17" width="28.61" height="22.32"/>
 <rect class="cls-7" x="1517.6" y="641.17" width="28.61" height="22.32"/>
 <rect class="cls-8" x="1553.6" y="667.76" width="28.61" height="2.05"/>
 <rect class="cls-8" x="1553.6" y="672.3" width="28.61" height="2.05"/>
 <rect class="cls-8" x="1553.6" y="676.84" width="28.61" height="2.05"/>
 <rect class="cls-8" x="1553.6" y="681.38" width="28.61" height="2.05"/>
 <rect class="cls-8" x="1553.6" y="685.92" width="28.61" height="2.05"/>
 <rect class="cls-8" x="1589.9" y="667.7" width="28.61" height="2.05"/>
 <rect class="cls-8" x="1589.9" y="672.24" width="28.61" height="2.05"/>
 <rect class="cls-8" x="1589.9" y="676.78" width="28.61" height="2.05"/>
 <rect class="cls-8" x="1589.9" y="681.32" width="28.61" height="2.05"/>
 <rect class="cls-8" x="1589.9" y="685.87" width="28.61" height="2.05"/>
 <rect class="cls-8" x="1517.6" y="667.7" width="28.61" height="2.05"/>
 <rect class="cls-8" x="1517.6" y="672.24" width="28.61" height="2.05"/>
 <rect class="cls-8" x="1517.6" y="676.78" width="28.61" height="2.05"/>
 <rect class="cls-8" x="1517.6" y="681.32" width="28.61" height="2.05"/>
 <rect class="cls-8" x="1517.6" y="685.87" width="28.61" height="2.05"/>
 <rect class="cls-9" x="1517.7" y="692.44" width="100.93" height="28.29"/>
 <rect class="cls-8" x="1517.7" y="724.58" width="100.93" height="2.04"/>
 <rect class="cls-8" x="1517.7" y="729.13" width="100.93" height="2.09"/>
 <rect class="cls-25" x="1514.8" y="552.41" width="5.39" height=".75"/>
 <rect class="cls-25" x="1514.8" y="554.56" width="5.39" height=".75"/>
 <rect class="cls-25" x="1514.8" y="556.71" width="5.39" height=".75"/>
 <rect class="cls-6" x="1589.9" y="601.15" width="15.89" height="12.29"/>
 <rect class="cls-1" x="213.48" y="318.61" width="353.63" height="459.23" rx="35.18" ry="35.18"/>
 <rect class="cls-2" x="247.9" y="360.88" width="284.78" height="378.09" rx="2.21" ry="2.21"/>
 <circle class="cls-3" cx="390.29" cy="342.08" r="2.37"/>
 <image transform="translate(351.71 304.23)" width="76" height="75"/>
 <circle class="cls-26" transform="translate(-433.97 538.21) rotate(-47.8)" cx="390.29" cy="758.76" r="10.65"/>
 <g class="cls-27">
  <image transform="translate(346.71 716.23)" width="88" height="85"/>
 </g>
 <g class="cls-28">
  <image transform="translate(350.71 719.23)" width="80" height="80"/>
 </g>
 <rect class="cls-4" x="247.9" y="390.12" width="284.78" height="23.75"/>
 <rect class="cls-4" x="263.82" y="427.42" width="252.64" height="113.64"/>
 <rect class="cls-5" x="295.82" y="476.05" width="184.2" height="19.36"/>
 <rect class="cls-6" x="440.78" y="476.05" width="39.23" height="19.58"/>
 <rect class="cls-7" x="354.12" y="551.1" width="71.48" height="45.38"/>
 <rect class="cls-7" x="444.71" y="551.33" width="71.48" height="45.38"/>
 <rect class="cls-7" x="264.04" y="551.33" width="71.48" height="45.38"/>
 <rect class="cls-8" x="354.12" y="605.39" width="71.48" height="4.17"/>
 <rect class="cls-8" x="354.12" y="614.62" width="71.48" height="4.17"/>
 <rect class="cls-8" x="354.12" y="623.86" width="71.48" height="4.17"/>
 <rect class="cls-8" x="354.12" y="633.09" width="71.48" height="4.17"/>
 <rect class="cls-8" x="354.12" y="642.33" width="71.48" height="4.17"/>
 <rect class="cls-8" x="444.71" y="605.27" width="71.48" height="4.17"/>
 <rect class="cls-8" x="444.71" y="614.51" width="71.48" height="4.17"/>
 <rect class="cls-8" x="444.71" y="623.74" width="71.48" height="4.17"/>
 <rect class="cls-8" x="444.71" y="632.98" width="71.48" height="4.17"/>
 <rect class="cls-8" x="444.71" y="642.21" width="71.48" height="4.17"/>
 <rect class="cls-8" x="264.04" y="605.27" width="71.48" height="4.17"/>
 <rect class="cls-8" x="264.04" y="614.51" width="71.48" height="4.17"/>
 <rect class="cls-8" x="264.04" y="623.74" width="71.48" height="4.17"/>
 <rect class="cls-8" x="264.04" y="632.98" width="71.48" height="4.17"/>
 <rect class="cls-8" x="264.04" y="642.21" width="71.48" height="4.17"/>
 <rect class="cls-9" x="264.31" y="655.58" width="252.15" height="57.53"/>
 <rect class="cls-8" x="264.31" y="720.95" width="252.15" height="4.15"/>
 <rect class="cls-8" x="264.31" y="730.19" width="252.15" height="4.25"/>
 <rect class="cls-25" x="257.09" y="370.83" width="13.46" height="1.53"/>
 <rect class="cls-25" x="257.09" y="375.2" width="13.46" height="1.53"/>
 <rect class="cls-25" x="257.09" y="379.58" width="13.46" height="1.53"/>
</svg>
